<svg width="228" height="70" viewBox="0 0 228 70" fill="none" xmlns="http://www.w3.org/2000/svg">
<rect width="227.789" height="70" fill="white"/>
<g clip-path="url(#clip0_1_36)">
<path d="M50.4912 10C36.4214 10 25.0296 21.1827 25.0047 34.9887H25V54.3326H25.0047C25.0113 57.4637 27.6006 59.9999 30.7939 59.9999H50.4937C64.566 59.991 75.9553 48.8097 75.9553 35.0111C75.9554 21.2051 64.5511 10.0224 50.4688 10.0224L50.4912 10ZM95.0677 20.0901C89.6817 20.0901 86.2246 24.1047 86.1923 27.8605V49.636C86.1854 52.3216 90.3562 52.3216 90.3487 49.636V35.1032H94.6222C95.6218 35.1032 96.4752 34.3929 96.4752 33.2535C96.4752 32.114 95.561 31.4254 94.6222 31.4254H90.3487V28.0778C90.3487 25.9343 92.0589 24.1478 95.5008 24.1901C96.698 24.2056 97.1201 24.4895 97.5572 24.7508C99.9443 26.3014 102.241 22.7112 99.7399 21.3385C98.2065 20.4184 96.7756 20.0928 95.0657 20.0928L95.0677 20.0901ZM140.615 20.4784C139.318 20.4103 138.365 21.6696 138.564 22.8673V32.1435C134.452 28.7635 127.76 29 123.967 32.7421C120.129 36.0971 119.399 42.1751 122.19 46.3639C124.241 49.5273 127.992 51.7848 131.857 51.6056C134.288 51.5835 136.696 50.5535 138.565 49.0345C138.373 50.2347 139.319 51.506 140.627 51.4289C141.911 51.485 142.908 50.2421 142.711 49.04C142.688 40.1197 142.733 31.2019 142.688 22.2841C142.622 21.2818 141.646 20.455 140.627 20.4829H140.622L140.615 20.4784ZM156.676 29.5605C150.406 29.5605 145.323 34.5043 145.321 40.6038C145.32 46.7052 150.404 51.6521 156.676 51.6521C162.948 51.6521 168.032 46.7052 168.03 40.6038C168.029 34.5043 162.946 29.5605 156.676 29.5605ZM193.761 29.6575C190.926 29.6575 188.883 30.4831 187.394 31.5287C185.135 33.1149 187.566 36.4319 189.825 34.8439C190.853 34.1224 191.616 33.7384 193.762 33.7384C196.433 33.791 198.578 34.7728 198.578 36.73C197.146 37.6183 190.922 38.3551 187.582 40.2195C184.239 42.0835 184.416 44.4357 184.416 45.9614C184.416 49.309 188.018 51.569 191.136 51.569C194.252 51.569 195.576 50.9276 198.625 48.8785V49.4609C198.527 52.2733 202.886 52.2733 202.787 49.4609V37.4419C202.8 32.4566 199.153 29.7312 193.765 29.6541L193.761 29.6575ZM173.085 29.7007C171.282 29.7007 170.981 31.1609 170.99 31.7498V49.4808C170.941 50.627 171.908 51.5785 173.118 51.5785C174.329 51.5785 175.296 50.627 175.246 49.4808C175.246 49.4808 175.279 42.8852 175.246 38.664C175.214 34.4428 178.719 33.5294 179.936 33.5294C180.841 33.5294 181.566 34.0249 182.283 33.9985C183.348 33.9592 184.219 33.2578 184.219 32.0303C184.187 30.0471 181.71 29.7664 179.881 29.8032C178.051 29.8399 176.506 30.3896 175.169 31.1729C175.169 31.1729 174.889 29.7007 173.085 29.7007ZM109.22 29.7438C107.839 29.6396 106.313 29.8567 104.635 30.4934C100.571 32.0341 97.813 35.8197 97.8006 40.4914C97.7893 45.3846 101.28 51.699 108.523 51.7463C113.394 51.7777 115.83 49.9934 117.144 48.7795C118.017 48.0214 118.081 46.704 117.282 45.8725C116.481 45.0397 115.137 45.0193 114.313 45.8294C113.331 46.7336 111.885 48.0769 107.787 47.6306C106.028 47.4396 104.14 46.0382 103.508 44.9675L116.936 39.3649C117.963 38.9174 118.437 37.7491 118.003 36.7341C116.204 33.2646 113.363 30.0588 109.222 29.7452L109.22 29.7438ZM156.683 33.6962C160.605 33.6962 163.785 36.788 163.787 40.6029C163.789 44.4207 160.608 47.5171 156.683 47.5171C152.758 47.5171 149.577 44.4207 149.58 40.6029C149.581 36.788 152.761 33.6962 156.683 33.6962ZM131.62 33.804C135.331 33.709 138.646 36.9874 138.577 40.5938C138.655 44.2028 135.328 47.4757 131.62 47.3836C128.093 47.4753 124.86 44.5462 124.681 41.1115C124.305 37.5723 127.269 34.1176 130.901 33.8364C131.14 33.8134 131.379 33.804 131.62 33.804ZM108.184 33.9119C110.204 33.9139 112.109 34.9351 113.078 36.58L101.9 41.2617C101.102 38.3397 104.377 34.9075 106.161 34.2678C106.83 34.0281 107.511 33.9114 108.184 33.9119ZM198.731 40.749C198.73 42.0708 198.751 42.4529 198.715 43.773C198.706 45.3599 197.69 46.0939 196.626 46.7C195.562 47.3073 193.398 47.8389 192.146 47.8971C190.701 47.944 188.788 47.6256 188.686 45.9451C188.687 44.9306 189.189 44.2999 190.011 43.5993C191.96 42.1659 194.596 41.6861 198.732 40.747L198.731 40.749Z" fill="#51A2DA"/>
<path d="M55.6705 20.282C51.6957 20.282 48.1845 23.2169 47.6984 27.0673C47.6658 27.3896 47.6562 27.6214 47.6544 27.9136L47.6591 43.6563C47.6591 46.6761 45.3545 48.7314 42.4748 48.7314C39.5912 48.7314 37.2682 46.4715 37.2682 43.6515C37.3155 40.5558 39.8419 38.5921 42.7888 38.5066H42.8044L45.7963 38.4795V34.3232L42.8044 34.3449C37.4408 34.2977 33.1833 38.4169 33.0278 43.6536C33.0278 48.7459 37.294 52.8978 42.4734 52.8978C47.3592 52.8978 51.4249 49.1542 51.8689 44.47C51.9329 42.8757 51.9021 40.7716 51.9021 40.7716C51.911 39.9052 51.8883 40.2161 51.8974 38.4958L55.6081 38.4693C58.4795 38.4892 58.4471 34.2466 55.5749 34.3049L51.8967 34.332C51.8967 32.1966 51.9309 30.074 51.8967 27.9353C51.8992 26.0855 53.6852 24.4511 55.6671 24.4511C57.6495 24.4511 59.7467 25.4215 59.7467 27.9353C59.7467 28.2944 59.7392 28.5034 59.7189 28.6365C59.4976 29.8023 60.31 30.917 61.5064 31.0852C62.7028 31.2514 63.8013 30.4037 63.9199 29.2244C63.9884 28.7582 63.9857 28.3471 63.9857 27.936C63.9857 23.5032 59.9462 20.2901 55.6678 20.2901L55.6705 20.282Z" fill="white"/>
</g>
<defs>
<clipPath id="clip0_1_36">
<rect width="177.789" height="50" fill="white" transform="translate(25 10)"/>
</clipPath>
</defs>
</svg>
