<svg width="184" height="70" viewBox="0 0 184 70" fill="none" xmlns="http://www.w3.org/2000/svg">
<rect width="183.83" height="70" fill="white"/>
<path d="M35.0998 25.1395C34.8391 25.1395 34.774 25.0091 34.9043 24.8137L36.2727 23.0543C36.403 22.8589 36.7288 22.7285 36.9894 22.7285H60.2515C60.5121 22.7285 60.5773 22.924 60.447 23.1195L59.3393 24.8137C59.2089 25.0091 58.8831 25.2046 58.6877 25.2046L35.0998 25.1395Z" fill="#51A2DA"/>
<path d="M25.2606 31.1342C25 31.1342 24.9348 31.0039 25.0652 30.8084L26.4335 29.0491C26.5638 28.8536 26.8896 28.7233 27.1503 28.7233H56.8632C57.1238 28.7233 57.2541 28.9187 57.189 29.1142L56.6677 30.678C56.6025 30.9387 56.3419 31.069 56.0813 31.069L25.2606 31.1342Z" fill="#51A2DA"/>
<path d="M41.0293 37.1289C40.7687 37.1289 40.7035 36.9334 40.8339 36.7379L41.7461 35.1089C41.8764 34.9134 42.1371 34.718 42.3977 34.718H55.4297C55.6903 34.718 55.8206 34.9134 55.8206 35.1741L55.6903 36.7379C55.6903 36.9986 55.4297 37.194 55.2342 37.194L41.0293 37.1289Z" fill="#51A2DA"/>
<path d="M108.665 23.9666C104.56 25.0091 101.758 25.7911 97.7184 26.8336C96.741 27.0943 96.6759 27.1594 95.8288 26.182C94.8514 25.0743 94.1346 24.3575 92.7663 23.7059C88.6612 21.686 84.6864 22.2724 80.9723 24.6833C76.5415 27.5504 74.2609 31.7858 74.326 37.0637C74.3912 42.2765 77.975 46.5771 83.1226 47.2938C87.5535 47.8803 91.2676 46.3164 94.1998 42.9933C94.7862 42.2765 95.3075 41.4946 95.9591 40.5824C93.6133 40.5824 90.6811 40.5824 83.3832 40.5824C82.0149 40.5824 81.6891 39.7353 82.1452 38.6276C82.9923 36.6076 84.5561 33.2193 85.4684 31.5251C85.6638 31.1342 86.12 30.4826 87.0974 30.4826C90.4205 30.4826 102.671 30.4826 110.816 30.4826C110.685 32.2419 110.685 34.0012 110.425 35.7605C109.708 40.452 107.949 44.7526 105.081 48.5319C100.5 54.5 94.2649 58.5665 86.5109 59.609C80.1252 60.4561 74.1957 59.2181 68.9829 55.3085C64.1611 51.6595 61.4244 46.8377 60.7076 40.843C59.8605 33.7406 61.9456 27.3549 66.2462 21.7511C70.8725 15.6913 76.9976 11.8468 84.491 10.4785C90.616 9.37077 96.4804 10.0875 101.758 13.6713C105.212 15.9519 107.688 19.0796 109.317 22.8589C109.708 23.4453 109.447 23.7711 108.665 23.9666Z" fill="#51A2DA"/>
<path d="M130.233 60C124.304 59.8697 118.895 58.1755 114.334 54.2659C110.49 50.9428 108.079 46.7074 107.297 41.6901C106.124 34.327 108.144 27.811 112.575 22.0118C117.332 15.7564 123.066 12.4984 130.82 11.1301C137.466 9.95721 143.721 10.6088 149.39 14.4532C154.538 17.9719 157.731 22.7285 158.578 28.9839C159.685 37.7805 157.144 44.9481 151.084 51.0731C146.784 55.4388 141.506 58.1755 135.446 59.4136C133.687 59.7394 131.927 59.8045 130.233 60ZM145.741 33.6754C145.676 32.8283 145.676 32.1767 145.546 31.5251C144.373 25.0743 138.443 21.4253 132.253 22.8589C126.193 24.2272 122.284 28.0717 120.85 34.1967C119.677 39.2792 122.153 44.4268 126.845 46.5119C130.429 48.0757 134.012 47.8803 137.466 46.1209C142.614 43.4494 145.415 39.2792 145.741 33.6754Z" fill="#51A2DA"/>
</svg>
